<svg width="133" height="30" viewBox="0 0 133 30" fill="none" xmlns="http://www.w3.org/2000/svg">
<path d="M36.6094 0.920044C39.5694 0.920044 42.156 1.50671 44.3694 2.68004C46.5827 3.85338 48.2894 5.50671 49.4894 7.64004C50.716 9.74671 51.3294 12.1867 51.3294 14.96C51.3294 17.7067 50.716 20.1467 49.4894 22.28C48.2894 24.4134 46.5694 26.0667 44.3294 27.24C42.116 28.4134 39.5427 29 36.6094 29H26.0894V0.920044H36.6094ZM36.1694 23.08C38.756 23.08 40.7694 22.3734 42.2094 20.96C43.6494 19.5467 44.3694 17.5467 44.3694 14.96C44.3694 12.3734 43.6494 10.36 42.2094 8.92004C40.7694 7.48004 38.756 6.76004 36.1694 6.76004H32.9294V23.08H36.1694Z" fill="#05090E"/>
<path d="M11.64 29.28C9.58666 29.28 7.74666 28.9467 6.11999 28.28C4.49333 27.6134 3.18666 26.6267 2.19999 25.32C1.23999 24.0134 0.733326 22.44 0.679993 20.6H7.95999C8.06666 21.64 8.42666 22.44 9.03999 23C9.65333 23.5334 10.4533 23.8 11.44 23.8C12.4533 23.8 13.2533 23.5734 13.84 23.12C14.4267 22.64 14.72 21.9867 14.72 21.16C14.72 20.4667 14.48 19.8934 14 19.44C13.5467 18.9867 12.9733 18.6134 12.28 18.32C11.6133 18.0267 10.6533 17.6934 9.39999 17.32C7.58666 16.76 6.10666 16.2 4.95999 15.64C3.81333 15.08 2.82666 14.2534 1.99999 13.16C1.17333 12.0667 0.759993 10.64 0.759993 8.88002C0.759993 6.26669 1.70666 4.22669 3.59999 2.76002C5.49333 1.26669 7.95999 0.52002 11 0.52002C14.0933 0.52002 16.5867 1.26669 18.48 2.76002C20.3733 4.22669 21.3867 6.28002 21.52 8.92002H14.12C14.0667 8.01335 13.7333 7.30669 13.12 6.80002C12.5067 6.26669 11.72 6.00002 10.76 6.00002C9.93333 6.00002 9.26666 6.22668 8.75999 6.68002C8.25333 7.10668 7.99999 7.73335 7.99999 8.56002C7.99999 9.46668 8.42666 10.1734 9.27999 10.68C10.1333 11.1867 11.4667 11.7334 13.28 12.32C15.0933 12.9334 16.56 13.52 17.68 14.08C18.8267 14.64 19.8133 15.4534 20.64 16.52C21.4667 17.5867 21.88 18.96 21.88 20.64C21.88 22.24 21.4667 23.6934 20.64 25C19.84 26.3067 18.6667 27.3467 17.12 28.12C15.5733 28.8934 13.7467 29.28 11.64 29.28Z" fill="#05090E"/>
<path d="M130.648 29.12C130.195 29.12 129.822 28.9733 129.528 28.68C129.235 28.3867 129.088 28.0133 129.088 27.56C129.088 27.1067 129.235 26.7333 129.528 26.44C129.822 26.1467 130.195 26 130.648 26C131.075 26 131.435 26.1467 131.728 26.44C132.022 26.7333 132.168 27.1067 132.168 27.56C132.168 28.0133 132.022 28.3867 131.728 28.68C131.435 28.9733 131.075 29.12 130.648 29.12Z" fill="#05090E"/>
<path d="M118.286 29.32C115.859 29.32 113.872 28.7867 112.326 27.72C110.806 26.6533 109.952 25.1333 109.766 23.16H111.606C111.739 24.5733 112.379 25.6933 113.526 26.52C114.699 27.3467 116.286 27.76 118.286 27.76C119.939 27.76 121.246 27.3467 122.206 26.52C123.192 25.6667 123.686 24.6267 123.686 23.4C123.686 22.5467 123.419 21.8533 122.886 21.32C122.379 20.76 121.739 20.3333 120.966 20.04C120.192 19.7467 119.139 19.4267 117.806 19.08C116.206 18.6533 114.912 18.24 113.926 17.84C112.939 17.4133 112.099 16.7867 111.406 15.96C110.712 15.1333 110.366 14.0267 110.366 12.64C110.366 11.6267 110.672 10.6933 111.286 9.84C111.899 8.96 112.752 8.26666 113.846 7.76C114.939 7.25333 116.179 7 117.566 7C119.832 7 121.659 7.57333 123.046 8.72C124.459 9.84 125.219 11.4 125.326 13.4H123.526C123.446 11.96 122.886 10.7867 121.846 9.88C120.806 8.97333 119.366 8.52 117.526 8.52C115.979 8.52 114.699 8.92 113.686 9.72C112.672 10.52 112.166 11.4933 112.166 12.64C112.166 13.6533 112.446 14.48 113.006 15.12C113.592 15.7333 114.299 16.2133 115.126 16.56C115.979 16.88 117.099 17.2267 118.486 17.6C120.006 18 121.219 18.4 122.126 18.8C123.059 19.1733 123.846 19.7333 124.486 20.48C125.126 21.2 125.446 22.1733 125.446 23.4C125.446 24.52 125.139 25.5333 124.526 26.44C123.912 27.3467 123.059 28.0533 121.966 28.56C120.872 29.0667 119.646 29.32 118.286 29.32Z" fill="#05090E"/>
<path d="M99.8584 8.84001V23.2C99.8584 24.8 100.152 25.9067 100.738 26.52C101.325 27.1067 102.365 27.4 103.858 27.4H106.298V29H103.578C101.685 29 100.285 28.56 99.3784 27.68C98.4984 26.7733 98.0584 25.28 98.0584 23.2V8.84001H94.7784V7.28001H98.0584V1.76001H99.8584V7.28001H106.298V8.84001H99.8584Z" fill="#05090E"/>
<path d="M84.9941 11.76C85.5274 10.16 86.4741 8.94663 87.8341 8.11996C89.1941 7.26663 90.9274 6.83997 93.0341 6.83997V8.71996H92.4341C90.3007 8.71996 88.5274 9.3333 87.1141 10.56C85.7007 11.76 84.9941 13.7333 84.9941 16.48V29H83.1941V7.27996H84.9941V11.76Z" fill="#05090E"/>
<path d="M55.16 18.12C55.16 15.88 55.6 13.92 56.48 12.24C57.3867 10.56 58.6267 9.26667 60.2 8.36C61.8 7.45333 63.6133 7 65.64 7C67.9333 7 69.88 7.56 71.48 8.68C73.08 9.8 74.2 11.2267 74.84 12.96V7.28H76.64V29H74.84V23.28C74.2 25.04 73.0667 26.4933 71.44 27.64C69.84 28.76 67.9067 29.32 65.64 29.32C63.6133 29.32 61.8 28.8667 60.2 27.96C58.6267 27.0267 57.3867 25.72 56.48 24.04C55.6 22.3333 55.16 20.36 55.16 18.12ZM74.84 18.12C74.84 16.2267 74.44 14.56 73.64 13.12C72.8667 11.6533 71.8 10.5333 70.44 9.76C69.08 8.96 67.56 8.56 65.88 8.56C64.12 8.56 62.5733 8.94667 61.24 9.72C59.9067 10.4667 58.8667 11.56 58.12 13C57.3733 14.44 57 16.1467 57 18.12C57 20.0933 57.3733 21.8 58.12 23.24C58.8667 24.68 59.9067 25.7867 61.24 26.56C62.6 27.3333 64.1467 27.72 65.88 27.72C67.56 27.72 69.08 27.3333 70.44 26.56C71.8267 25.76 72.9067 24.64 73.68 23.2C74.4533 21.7333 74.84 20.04 74.84 18.12Z" fill="#05090E"/>
</svg>
