<svg width="134" height="31" viewBox="0 0 134 31" fill="none" xmlns="http://www.w3.org/2000/svg">
<path d="M37.6089 0.900024C40.6357 0.900024 43.3065 1.50043 45.604 2.71838C47.8997 3.93544 49.6773 5.65594 50.9253 7.87463H50.9243C52.199 10.0664 52.8296 12.5933 52.8296 15.4401C52.8296 18.262 52.1979 20.7879 50.9243 23.0045C49.6757 25.2243 47.8846 26.9442 45.563 28.1608L45.564 28.1617C43.2671 29.3794 40.6099 29.9801 37.6089 29.9801H26.5894V0.900024H37.6089ZM34.4292 23.0602H37.1694C39.6634 23.0602 41.5367 22.3811 42.8589 21.0836C44.178 19.7889 44.8696 17.9322 44.8696 15.4401C44.8696 12.9484 44.1785 11.0761 42.856 9.75354C41.5334 8.43095 39.6611 7.73988 37.1694 7.73987H34.4292V23.0602Z" stroke="#05090E"/>
<path d="M12.0003 0.5C15.1716 0.50005 17.7822 1.26634 19.7855 2.84473H19.7864C21.8077 4.4106 22.88 6.60646 23.0198 9.375L23.0462 9.90039H14.6487L14.6204 9.42969C14.574 8.64008 14.2917 8.07035 13.8011 7.66504L13.7913 7.65723V7.65625C13.2851 7.21642 12.622 6.98048 11.7601 6.98047C11.0286 6.98047 10.4892 7.17777 10.0931 7.53223L10.0882 7.53809L10.0823 7.54199C9.71573 7.85072 9.50031 8.32109 9.50031 9.04004C9.50032 9.75097 9.81654 10.3036 10.5355 10.7305C11.3397 11.2079 12.6302 11.7407 14.4339 12.3242L14.4398 12.3262C16.2626 12.9427 17.7521 13.5369 18.8997 14.1104L19.3489 14.3467C20.3777 14.9263 21.2736 15.7104 22.0355 16.6934C22.9453 17.8673 23.3802 19.3569 23.3802 21.1201C23.3802 22.8086 22.9421 24.3524 22.0657 25.7402C21.2109 27.1365 19.9631 28.2372 18.3441 29.0469C16.7144 29.8617 14.8076 30.2598 12.64 30.2598C10.5324 30.2598 8.62605 29.9178 6.92999 29.2227C5.22689 28.5246 3.84571 27.4849 2.80109 26.1016L2.79718 26.0957C1.76926 24.6965 1.23589 23.0218 1.17999 21.0947L1.16534 20.5801H9.41144L9.45734 21.0293C9.55453 21.9764 9.87445 22.6482 10.3724 23.1055C10.8758 23.5415 11.5491 23.7802 12.4398 23.7803C13.3809 23.7803 14.0597 23.5695 14.5316 23.2061C14.9853 22.8311 15.22 22.3276 15.22 21.6396C15.22 21.0763 15.031 20.6368 14.6566 20.2832L14.6468 20.2734C14.2462 19.8729 13.7294 19.5333 13.0853 19.2607L13.0784 19.2578C12.4402 18.977 11.5035 18.6505 10.2571 18.2793L10.2523 18.2773C8.42505 17.713 6.91857 17.1447 5.74054 16.5693C4.51813 15.9723 3.47133 15.0926 2.60089 13.9414C1.69217 12.7394 1.26013 11.1978 1.26007 9.36035C1.26007 6.6086 2.2664 4.4156 4.29425 2.84473C6.29615 1.26733 8.87971 0.5 12.0003 0.5Z" stroke="#05090E"/>
<path d="M131.648 29.6C131.195 29.6 130.822 29.4533 130.528 29.16C130.235 28.8666 130.088 28.4933 130.088 28.04C130.088 27.5866 130.235 27.2133 130.528 26.92C130.822 26.6266 131.195 26.48 131.648 26.48C132.075 26.48 132.435 26.6266 132.728 26.92C133.022 27.2133 133.168 27.5866 133.168 28.04C133.168 28.4933 133.022 28.8666 132.728 29.16C132.435 29.4533 132.075 29.6 131.648 29.6Z" fill="#05090E"/>
<path d="M119.286 29.8C116.859 29.8 114.872 29.2666 113.326 28.2C111.806 27.1333 110.952 25.6133 110.766 23.64H112.606C112.739 25.0533 113.379 26.1733 114.526 27C115.699 27.8266 117.286 28.24 119.286 28.24C120.939 28.24 122.246 27.8266 123.206 27C124.192 26.1466 124.686 25.1066 124.686 23.88C124.686 23.0266 124.419 22.3333 123.886 21.8C123.379 21.24 122.739 20.8133 121.966 20.52C121.192 20.2266 120.139 19.9066 118.806 19.56C117.206 19.1333 115.912 18.72 114.926 18.32C113.939 17.8933 113.099 17.2666 112.406 16.44C111.712 15.6133 111.366 14.5066 111.366 13.12C111.366 12.1066 111.672 11.1733 112.286 10.32C112.899 9.43998 113.752 8.74665 114.846 8.23998C115.939 7.73331 117.179 7.47998 118.566 7.47998C120.832 7.47998 122.659 8.05331 124.046 9.19998C125.459 10.32 126.219 11.88 126.326 13.88H124.526C124.446 12.44 123.886 11.2666 122.846 10.36C121.806 9.45331 120.366 8.99998 118.526 8.99998C116.979 8.99998 115.699 9.39998 114.686 10.2C113.672 11 113.166 11.9733 113.166 13.12C113.166 14.1333 113.446 14.96 114.006 15.6C114.592 16.2133 115.299 16.6933 116.126 17.04C116.979 17.36 118.099 17.7066 119.486 18.08C121.006 18.48 122.219 18.88 123.126 19.28C124.059 19.6533 124.846 20.2133 125.486 20.96C126.126 21.68 126.446 22.6533 126.446 23.88C126.446 25 126.139 26.0133 125.526 26.92C124.912 27.8266 124.059 28.5333 122.966 29.04C121.872 29.5466 120.646 29.8 119.286 29.8Z" fill="#05090E"/>
<path d="M100.858 9.31999V23.68C100.858 25.28 101.152 26.3867 101.738 27C102.325 27.5867 103.365 27.88 104.858 27.88H107.298V29.48H104.578C102.685 29.48 101.285 29.04 100.378 28.16C99.4984 27.2533 99.0584 25.76 99.0584 23.68V9.31999H95.7784V7.75999H99.0584V2.23999H100.858V7.75999H107.298V9.31999H100.858Z" fill="#05090E"/>
<path d="M85.9941 12.2399C86.5274 10.6399 87.4741 9.42661 88.8341 8.59995C90.1941 7.74661 91.9274 7.31995 94.0341 7.31995V9.19995H93.4341C91.3007 9.19995 89.5274 9.81328 88.1141 11.0399C86.7007 12.2399 85.9941 14.2133 85.9941 16.9599V29.4799H84.1941V7.75994H85.9941V12.2399Z" fill="#05090E"/>
<path d="M56.16 18.6C56.16 16.36 56.6 14.4 57.48 12.72C58.3867 11.04 59.6267 9.74665 61.2 8.83998C62.8 7.93331 64.6133 7.47998 66.64 7.47998C68.9333 7.47998 70.88 8.03998 72.48 9.15998C74.08 10.28 75.2 11.7066 75.84 13.44V7.75998H77.64V29.48H75.84V23.76C75.2 25.52 74.0667 26.9733 72.44 28.12C70.84 29.24 68.9067 29.8 66.64 29.8C64.6133 29.8 62.8 29.3466 61.2 28.44C59.6267 27.5066 58.3867 26.2 57.48 24.52C56.6 22.8133 56.16 20.84 56.16 18.6ZM75.84 18.6C75.84 16.7066 75.44 15.04 74.64 13.6C73.8667 12.1333 72.8 11.0133 71.44 10.24C70.08 9.43998 68.56 9.03998 66.88 9.03998C65.12 9.03998 63.5733 9.42665 62.24 10.2C60.9067 10.9466 59.8667 12.04 59.12 13.48C58.3733 14.92 58 16.6266 58 18.6C58 20.5733 58.3733 22.28 59.12 23.72C59.8667 25.16 60.9067 26.2666 62.24 27.04C63.6 27.8133 65.1467 28.2 66.88 28.2C68.56 28.2 70.08 27.8133 71.44 27.04C72.8267 26.24 73.9067 25.12 74.68 23.68C75.4533 22.2133 75.84 20.52 75.84 18.6Z" fill="#05090E"/>
</svg>
